<svg width="83" height="36" viewBox="0 0 83 36" fill="none" xmlns="http://www.w3.org/2000/svg">
<path d="M37.22 11H41.94V25H37.22V11ZM32.86 25H28.14V11H32.86V25ZM37.54 19.84H32.54V15.96H37.54V19.84ZM49.4342 25.32C48.3142 25.32 47.3142 25.1467 46.4342 24.8C45.5542 24.44 44.8609 23.9533 44.3542 23.34C43.8476 22.7267 43.5942 22.0333 43.5942 21.26C43.5942 20.4867 43.7609 19.8067 44.0942 19.22C44.4409 18.62 44.9676 18.0867 45.6742 17.62C46.3942 17.14 47.3009 16.6933 48.3942 16.28C49.0609 16.0267 49.5809 15.7933 49.9542 15.58C50.3409 15.3667 50.6142 15.1667 50.7742 14.98C50.9342 14.78 51.0142 14.5867 51.0142 14.4C51.0142 14.1867 50.9409 14.0133 50.7942 13.88C50.6609 13.7467 50.4542 13.68 50.1742 13.68C49.8676 13.68 49.6276 13.76 49.4542 13.92C49.2942 14.0667 49.2142 14.2533 49.2142 14.48C49.2142 14.6267 49.2476 14.7733 49.3142 14.92C49.3942 15.0667 49.5409 15.2467 49.7542 15.46C49.9676 15.66 50.2676 15.9267 50.6542 16.26L58.0142 22.52L55.5942 25.26L47.1142 17.98C46.6609 17.6067 46.2876 17.2333 45.9942 16.86C45.7009 16.4733 45.4809 16.0867 45.3342 15.7C45.1876 15.3133 45.1142 14.9267 45.1142 14.54C45.1142 13.7933 45.3209 13.14 45.7342 12.58C46.1609 12.0067 46.7476 11.56 47.4942 11.24C48.2542 10.92 49.1409 10.76 50.1542 10.76C51.0876 10.76 51.9009 10.9067 52.5942 11.2C53.2876 11.48 53.8276 11.8867 54.2142 12.42C54.6009 12.9533 54.7942 13.58 54.7942 14.3C54.7942 14.94 54.6276 15.52 54.2942 16.04C53.9742 16.56 53.4742 17.0333 52.7942 17.46C52.1276 17.8867 51.2809 18.2933 50.2542 18.68C49.7209 18.88 49.2876 19.0867 48.9542 19.3C48.6209 19.5133 48.3809 19.74 48.2342 19.98C48.0876 20.2067 48.0142 20.4667 48.0142 20.76C48.0142 20.9733 48.0809 21.1733 48.2142 21.36C48.3609 21.5467 48.5609 21.6933 48.8142 21.8C49.0809 21.9067 49.4009 21.96 49.7742 21.96C50.4942 21.96 51.1676 21.7733 51.7942 21.4C52.4342 21.0133 52.9809 20.46 53.4342 19.74C53.9009 19.02 54.2209 18.16 54.3942 17.16L58.0142 18.24C57.7076 19.6133 57.1476 20.8333 56.3342 21.9C55.5342 22.9667 54.5409 23.8067 53.3542 24.42C52.1809 25.02 50.8742 25.32 49.4342 25.32ZM62.9105 25L58.4305 11H63.2905L66.9105 22.82H64.4705L68.3105 11H72.6505L76.2305 22.82H73.8905L77.6705 11H82.1505L77.6705 25H72.6105L69.6905 15.32H71.0505L67.9705 25H62.9105Z" fill="#2A0C03"/>
<path d="M2.75 9.93333C2.75 9.83208 2.83208 9.75 2.93333 9.75H19.0667C19.1679 9.75 19.25 9.83208 19.25 9.93333V26.0667C19.25 26.1679 19.1679 26.25 19.0667 26.25H2.93333C2.83208 26.25 2.75 26.1679 2.75 26.0667V9.93333Z" stroke="#2A0C03" stroke-width="5.5" stroke-linejoin="round"/>
</svg>
