<svg width="96" height="96" viewBox="0 0 96 96" fill="none" xmlns="http://www.w3.org/2000/svg">
<g clip-path="url(#clip0_11_31)">
<path d="M94 43.876L85.468 32.232C83.532 29.584 80.412 28 77.128 28H18.872C15.588 28 12.468 29.584 10.532 32.228L2.00002 43.876C-1.04798 48.04 -0.599977 53.692 3.16002 57.42L48 95.992L92.944 57.324C96.6 53.696 97.044 48.044 94 43.88V43.876ZM82.244 34.596L90.776 46.244C91.18 46.796 91.484 47.388 91.688 48H67.356L60.956 32H77.132C79.144 32 81.056 32.968 82.244 34.592V34.596ZM32.956 48.004L39.356 32.004H56.652L63.052 48.004H32.956ZM63.004 52.004L48 88.14L32.996 52.004H63H63.004ZM13.756 34.588C14.944 32.968 16.856 32 18.868 32H35.044L28.644 48H4.31602C4.52002 47.384 4.82402 46.792 5.22802 46.244L13.76 34.592L13.756 34.588ZM4.32002 52H28.664L42.928 86.352L5.87602 54.484C5.14802 53.76 4.62802 52.908 4.32002 52ZM53.072 86.352L67.336 52H91.704C91.412 52.884 90.92 53.704 90.232 54.388L53.072 86.352ZM50 16H46V0H50V16ZM69.688 18.1L66.312 15.952L74.312 3.384L77.688 5.532L69.688 18.1ZM26.312 18.1L18.312 5.532L21.688 3.384L29.688 15.952L26.312 18.1Z" fill="#2A0C03"/>
</g>
<defs>
<clipPath id="clip0_11_31">
<rect width="96" height="96" fill="white"/>
</clipPath>
</defs>
</svg>
